<?xml version="1.0" standalone="no"?>
<!DOCTYPE svg PUBLIC "-//W3C//DTD SVG 20010904//EN"
 "http://www.w3.org/TR/2001/REC-SVG-20010904/DTD/svg10.dtd">
<svg version="1.0" xmlns="http://www.w3.org/2000/svg"
 width="1134.000000pt" height="1169.000000pt" viewBox="0 0 1134.000000 1169.000000"
 preserveAspectRatio="xMidYMid meet">

<g transform="translate(0.000000,1169.000000) scale(0.100000,-0.100000)"
fill="#000000" stroke="none">
<path d="M4588 10020 c-95 -16 -187 -93 -235 -195 -38 -82 -40 -192 -3 -279
14 -33 30 -61 35 -63 6 -2 16 19 22 46 31 129 134 263 227 294 111 38 258 14
375 -60 228 -143 343 -408 311 -715 -24 -237 -143 -515 -307 -718 -55 -67
-124 -142 -128 -138 -2 2 26 62 61 133 75 152 105 230 133 339 55 212 34 294
-94 375 -216 136 -507 160 -660 53 -128 -89 -193 -298 -131 -421 42 -82 137
-132 195 -102 24 13 29 62 8 80 -23 18 -74 24 -109 12 -41 -14 -52 -2 -68 75
-18 85 20 212 81 273 84 85 196 114 331 86 206 -41 318 -198 318 -443 0 -225
-89 -431 -258 -597 -67 -65 -215 -175 -236 -175 -5 0 6 17 25 38 75 79 156
210 208 339 37 90 36 116 -5 111 -37 -4 -55 -35 -31 -53 17 -13 17 -15 -8 -65
-64 -126 -217 -310 -324 -389 -104 -78 -260 -148 -365 -167 -118 -20 -129 -16
-70 25 120 84 317 236 377 291 104 96 155 223 145 364 -3 43 -10 62 -24 73
-28 20 -38 0 -54 -104 -38 -265 -126 -357 -422 -447 -254 -76 -436 -94 -1033
-98 l-430 -3 -3 38 c-2 24 -8 37 -18 37 -12 0 -14 -101 -16 -702 l-3 -703 -32
-3 c-49 -5 -113 17 -145 48 l-28 28 0 626 c0 349 -4 626 -9 626 -5 0 -66 -39
-137 -86 -125 -84 -417 -265 -637 -395 -60 -35 -109 -68 -110 -73 -1 -6 29
-16 67 -23 104 -19 169 -55 219 -121 l42 -55 6 -206 c3 -113 11 -220 17 -238
37 -111 120 -204 219 -243 53 -21 76 -23 296 -28 l237 -4 0 -32 c0 -28 -17
-49 -133 -163 -73 -72 -139 -139 -147 -148 -12 -14 4 -33 133 -164 l147 -148
0 -97 c0 -55 -4 -96 -9 -94 -5 2 -78 69 -163 149 -280 266 -334 314 -387 343
-70 38 -141 56 -221 56 -232 0 -365 -142 -469 -503 -59 -204 -49 -257 23 -125
47 86 112 153 181 188 44 22 62 25 150 24 69 0 111 -5 135 -16 19 -9 78 -63
130 -120 124 -134 340 -367 365 -394 34 -35 208 -225 237 -258 l28 -31 0 -458
c0 -406 2 -458 15 -455 14 3 16 55 15 430 0 467 0 462 55 396 15 -18 77 -87
139 -153 61 -66 143 -154 181 -195 71 -77 253 -274 313 -339 19 -21 35 -31 40
-25 5 5 63 77 129 159 67 83 129 159 140 170 10 11 60 68 112 125 115 128 382
395 589 589 110 104 152 150 150 164 -2 13 -20 25 -63 39 -75 25 -117 57 -139
101 -14 31 -16 84 -16 419 0 475 -7 520 -97 619 -20 22 -55 50 -77 62 -41 22
-46 22 -746 27 l-705 5 -3 483 -2 483 32 29 c112 103 307 118 466 36 104 -54
217 -168 317 -318 21 -32 42 -58 47 -58 5 0 13 12 19 26 39 105 231 327 368
427 61 46 65 47 136 47 182 0 463 76 670 182 514 262 832 651 902 1103 49 324
-51 635 -284 879 -101 106 -211 182 -318 219 -54 19 -150 27 -207 17z m-1038
-2344 c0 -2 -29 -20 -64 -41 -35 -20 -86 -59 -114 -85 l-50 -48 -56 54 c-35
34 -80 65 -119 82 l-62 27 140 5 c203 8 325 11 325 6z m-1585 -548 c3 -161 5
-363 3 -448 l-3 -155 -22 45 c-25 53 -38 139 -54 355 -6 88 -16 196 -23 240
-11 83 -17 91 -80 110 -14 4 -1 19 69 75 48 39 91 70 95 70 4 0 11 -132 15
-292z m1360 -813 c125 -34 233 -118 283 -218 l22 -45 -2 -696 -3 -695 -55 -57
c-70 -72 -106 -88 -162 -73 -22 6 -46 16 -53 22 -23 22 -399 382 -430 412 -18
17 -121 115 -230 220 -108 104 -209 200 -223 212 -26 22 -27 26 -29 143 l-1
120 150 152 151 153 -151 145 c-134 129 -152 150 -152 178 0 23 5 32 18 33 94
8 466 16 617 14 140 -2 206 -7 250 -20z m450 -110 c73 -73 82 -99 99 -306 8
-101 18 -260 21 -354 10 -254 21 -394 35 -409 6 -8 25 -18 41 -21 16 -4 29
-10 29 -14 0 -7 -110 -97 -154 -126 l-24 -16 -6 93 c-3 51 -7 307 -10 569 -5
542 -1 515 -95 613 -45 47 -45 48 -12 31 18 -9 53 -36 76 -60z m-1655 -787
c31 -29 112 -105 180 -168 203 -188 269 -250 385 -356 61 -55 145 -133 187
-172 124 -113 327 -285 362 -307 18 -11 34 -24 35 -30 1 -12 -110 -165 -120
-165 -4 0 -68 74 -143 164 -75 91 -142 171 -148 178 -7 7 -38 43 -68 78 -30
36 -57 67 -60 70 -3 3 -18 21 -34 40 -50 62 -270 312 -350 400 -28 31 -71 78
-95 105 -25 28 -90 97 -145 154 -101 104 -94 108 14 9z"/>
<path d="M5875 9984 c-14 -15 -30 -44 -35 -64 -6 -21 -17 -43 -25 -50 -27 -22
-16 -38 52 -74 63 -34 103 -41 88 -16 -4 6 -4 33 0 60 l7 50 39 0 c27 0 42 -5
46 -16 9 -24 -19 -155 -34 -161 -7 -3 -41 0 -75 6 -53 9 -67 8 -98 -7 -21 -10
-42 -31 -52 -52 -19 -40 -69 -302 -60 -311 10 -9 341 -73 347 -67 2 2 11 34
19 72 7 37 21 75 30 85 9 10 16 23 16 29 0 13 -135 83 -144 75 -3 -4 -6 -22
-6 -42 0 -20 -3 -47 -7 -60 -5 -21 -10 -23 -50 -18 -24 2 -47 7 -50 11 -8 8
14 157 25 168 4 4 39 2 79 -4 80 -13 124 -2 148 36 14 22 55 205 55 244 0 33
-26 79 -53 93 -32 18 -134 38 -190 39 -39 0 -52 -5 -72 -26z"/>
<path d="M6515 9869 c-44 -13 -58 -38 -118 -215 -30 -87 -67 -192 -82 -232
-36 -101 -38 -154 -5 -187 32 -31 172 -85 222 -85 72 0 89 27 180 290 44 129
83 249 85 265 6 40 -11 80 -41 100 -23 15 -190 76 -204 74 -4 0 -20 -5 -37
-10z m108 -130 c20 -5 37 -16 37 -23 0 -11 -21 -74 -115 -351 -15 -44 -31 -83
-34 -87 -9 -10 -82 13 -87 27 -3 8 73 242 141 433 5 15 10 15 58 1z"/>
<path d="M3700 9754 c-100 -42 -145 -82 -135 -123 4 -14 38 -105 77 -201 39
-96 86 -213 104 -259 19 -47 32 -93 28 -103 -3 -11 1 -20 11 -24 16 -7 94 18
133 43 l23 14 -25 30 c-14 16 -31 48 -38 71 -11 39 -11 42 16 64 15 13 34 24
42 24 19 0 46 -61 53 -120 5 -40 9 -45 29 -43 21 3 130 48 141 59 3 2 -5 14
-16 27 -11 12 -53 103 -93 202 -117 291 -130 319 -161 348 -40 37 -83 35 -189
-9z m105 -104 c3 -6 26 -60 50 -120 l43 -111 -26 -24 c-51 -47 -59 -38 -127
136 -19 49 -35 91 -35 93 0 9 54 35 72 36 9 0 20 -5 23 -10z"/>
<path d="M7073 9606 c-16 -13 -35 -36 -42 -50 -8 -14 -22 -28 -33 -32 -10 -3
-18 -11 -18 -18 0 -15 102 -116 117 -116 6 0 15 15 18 33 4 17 16 44 27 59 19
27 19 27 53 11 19 -9 35 -22 35 -30 0 -22 -71 -143 -85 -143 -6 0 -39 14 -73
31 -94 49 -138 33 -195 -71 -95 -175 -119 -222 -116 -224 11 -11 307 -166 315
-166 6 0 21 21 34 48 13 26 39 62 58 80 l35 33 -54 55 c-56 57 -76 65 -85 37
-14 -44 -38 -93 -45 -93 -22 0 -79 36 -79 50 0 21 69 150 80 150 5 0 32 -13
60 -30 90 -53 160 -36 203 49 7 14 31 59 51 99 61 116 45 156 -88 226 -83 44
-132 47 -173 12z"/>
<path d="M3165 9499 c-47 -26 -228 -130 -235 -136 -2 -2 8 -14 22 -26 24 -21
60 -81 250 -411 37 -66 68 -130 68 -143 0 -13 3 -23 6 -23 16 0 144 83 144 93
0 7 -8 17 -17 23 -10 6 -28 29 -40 50 -19 34 -20 41 -8 58 14 18 15 18 50 -5
19 -13 43 -41 53 -61 9 -21 21 -38 25 -38 14 0 147 82 147 91 0 4 -10 14 -22
20 -13 7 -48 31 -79 55 l-56 43 5 49 c4 47 0 56 -77 189 -45 77 -92 150 -105
162 -34 32 -83 36 -131 10z m67 -156 c14 -21 44 -72 66 -114 l42 -76 -22 -33
c-13 -18 -28 -35 -33 -37 -6 -2 -44 54 -84 124 l-74 127 29 23 c39 31 47 29
76 -14z"/>
<path d="M7625 9308 c-24 -24 -45 -48 -45 -55 0 -7 16 -15 35 -19 19 -3 37
-10 40 -13 3 -7 -18 -38 -111 -166 -8 -11 -48 -67 -89 -125 -42 -58 -92 -120
-112 -137 -42 -38 -40 -42 42 -98 55 -38 75 -39 75 -4 0 19 32 71 90 149 15
19 58 78 96 130 39 52 96 130 127 172 31 43 57 81 57 85 0 4 -24 25 -53 45
-28 21 -64 47 -79 59 l-28 21 -45 -44z"/>
<path d="M2627 9129 c-49 -13 -192 -142 -202 -181 -9 -37 7 -66 101 -173 47
-55 110 -127 138 -159 28 -33 72 -84 99 -113 26 -29 47 -62 47 -73 0 -40 29
-33 90 20 33 29 60 55 60 60 0 4 -12 13 -27 19 -16 6 -43 30 -61 52 l-34 40
24 34 c20 31 58 48 58 28 0 -5 16 -25 35 -47 19 -21 35 -44 35 -51 0 -7 6 -18
14 -24 10 -9 27 2 77 48 l64 58 -31 16 c-17 9 -47 36 -68 61 -20 25 -42 51
-49 58 -7 7 -64 74 -128 148 -64 74 -126 143 -137 153 -27 24 -71 35 -105 26z
m90 -216 c37 -43 74 -84 81 -91 6 -7 12 -18 12 -24 0 -15 -40 -78 -49 -78 -8
0 -40 34 -135 143 l-59 68 28 29 c16 17 34 30 41 30 7 0 43 -35 81 -77z"/>
<path d="M5780 9101 c-50 -16 -126 -60 -162 -96 -82 -80 -104 -190 -59 -293
28 -62 123 -155 189 -183 57 -25 128 -24 168 0 61 37 98 167 55 191 -23 12
-81 13 -99 1 -10 -6 -8 -18 13 -57 40 -76 21 -124 -49 -124 -83 1 -182 69
-211 145 -21 54 -15 83 8 39 21 -42 58 -64 104 -64 l38 1 -27 15 c-35 18 -48
43 -48 90 0 86 69 164 195 220 55 24 62 24 128 14 68 -10 162 -51 204 -88 10
-10 50 -43 88 -76 39 -32 95 -80 125 -106 30 -26 88 -76 128 -110 39 -34 72
-65 72 -69 0 -3 -28 -22 -62 -41 -35 -18 -128 -72 -208 -118 -287 -168 -405
-216 -575 -233 -130 -13 -189 0 -222 50 l-23 34 0 -29 c0 -83 119 -243 217
-290 50 -25 67 -28 152 -27 223 2 412 83 812 349 l156 104 84 -50 c286 -171
522 -164 537 15 6 73 -9 104 -80 170 -72 67 -147 106 -269 141 -79 23 -104 26
-188 22 -79 -5 -113 -12 -194 -43 -83 -31 -100 -35 -115 -24 -27 21 -155 132
-172 149 -99 101 -323 276 -410 320 -106 54 -225 74 -300 51z m1549 -606 c16
-8 41 -29 56 -47 22 -26 26 -39 22 -71 -10 -71 -77 -117 -169 -117 -76 0 -291
74 -312 108 -6 10 123 85 202 117 67 27 159 32 201 10z"/>
<path d="M8189 8857 c-101 -42 -161 -98 -207 -192 -46 -92 -64 -168 -63 -259
0 -93 20 -158 58 -198 30 -31 60 -35 103 -13 24 12 50 52 38 59 -1 1 -20 9
-40 18 -21 10 -49 35 -65 59 -57 87 -36 258 44 363 51 67 90 88 174 94 167 12
289 -90 364 -303 27 -74 32 -237 10 -311 -58 -198 -221 -385 -430 -492 -81
-42 -198 -73 -272 -71 -32 0 -27 3 37 20 162 42 330 148 432 270 184 222 191
473 14 518 -66 16 -84 14 -111 -15 -28 -30 -32 -66 -11 -83 12 -10 15 -7 18
21 3 31 5 33 45 36 36 3 47 -2 81 -32 54 -49 70 -107 53 -189 -30 -147 -147
-301 -304 -401 -74 -47 -168 -90 -267 -121 -74 -23 -96 -26 -166 -21 -106 8
-280 39 -429 76 -233 60 -325 72 -517 73 l-176 0 9 24 c9 26 13 93 4 93 -3 0
-26 -15 -52 -34 -62 -43 -185 -105 -315 -157 -138 -55 -283 -130 -338 -176
-131 -108 -197 -199 -299 -405 l-62 -127 -204 -163 -203 -163 63 -6 c84 -7
139 -48 194 -144 36 -62 169 -335 245 -500 16 -33 34 -73 42 -89 8 -16 14 -35
14 -41 0 -7 -63 -63 -140 -125 -77 -62 -140 -114 -140 -114 0 -1 33 -2 73 -2
55 0 83 -5 120 -23 26 -12 47 -26 47 -30 0 -7 73 -43 113 -55 16 -5 17 -32 17
-376 l0 -370 -29 -32 -29 -33 -244 -3 c-133 -1 -253 -4 -265 -7 -28 -7 -62
-42 -75 -78 -11 -29 -38 -41 -96 -41 -43 0 -63 22 -73 81 -5 26 -13 556 -19
1177 -5 621 -11 1131 -13 1133 -4 3 -110 -84 -374 -305 -62 -52 -113 -98 -113
-102 0 -5 8 -11 18 -14 11 -4 30 -18 43 -32 l24 -26 5 -916 5 -917 33 -76 c18
-42 48 -100 67 -130 18 -29 33 -55 31 -56 -1 -1 -42 12 -91 29 -251 88 -577 7
-694 -172 -31 -48 -36 -63 -36 -119 0 -46 4 -66 15 -71 272 -144 398 -202 419
-195 34 11 24 21 -38 40 -66 20 -102 48 -130 103 -27 52 -39 118 -20 107 8 -5
42 -26 77 -48 41 -26 80 -41 109 -45 33 -3 44 -2 39 7 -4 6 -13 11 -20 11 -23
0 -94 70 -115 113 -12 24 -21 59 -21 78 0 40 29 107 56 131 49 42 231 55 340
23 78 -22 178 -76 233 -124 l43 -39 36 46 c55 73 96 125 107 138 6 6 37 45 70
87 33 43 63 77 67 77 5 0 8 -17 8 -37 0 -61 29 -163 71 -249 40 -81 82 -134
93 -116 3 5 9 48 12 96 12 148 38 169 251 190 184 19 249 49 293 137 19 36 20
61 20 451 0 350 2 410 14 398 7 -8 37 -68 66 -134 28 -65 83 -184 121 -264 38
-79 69 -146 69 -148 0 -2 39 -83 86 -181 73 -150 153 -294 174 -313 9 -9 90
-128 90 -133 0 -3 -35 -8 -77 -12 -238 -20 -675 -122 -1258 -291 -104 -31
-201 -60 -215 -66 -14 -5 -164 -56 -335 -113 -170 -57 -348 -117 -394 -134
-96 -36 -112 -37 -172 -15 -84 30 -281 83 -371 100 -209 38 -540 -16 -732
-119 -81 -43 -101 -72 -92 -131 6 -39 13 -51 44 -71 54 -35 110 -44 269 -45
160 0 314 22 458 67 135 41 150 40 470 -53 127 -36 773 -251 783 -259 2 -2
-28 -34 -65 -72 -133 -132 -203 -265 -269 -503 -26 -92 -26 -368 -1 -460 24
-90 95 -232 152 -309 56 -74 180 -183 245 -216 127 -63 261 -91 401 -81 229
16 387 97 474 242 53 90 53 197 -1 210 -56 14 -68 -9 -78 -145 -8 -109 -13
-122 -67 -161 -127 -91 -308 -50 -539 123 -195 146 -357 327 -426 473 -48 104
-68 199 -69 334 0 144 23 226 95 334 48 71 182 206 205 206 6 0 152 -48 325
-106 567 -190 679 -215 950 -216 120 0 181 4 224 16 125 33 193 84 220 163 21
62 20 108 -4 177 -24 71 -65 123 -138 179 -79 59 -151 92 -278 124 -101 26
-123 28 -294 27 -200 -1 -317 -15 -475 -60 -113 -32 -245 -79 -309 -111 l-48
-24 -117 40 c-64 22 -258 90 -431 151 -173 62 -330 116 -347 121 -18 6 -33 13
-33 18 0 4 15 12 33 18 17 6 138 48 267 92 638 220 1138 343 1610 397 175 20
495 14 601 -10 83 -19 176 -53 211 -77 35 -26 38 -24 38 16 l0 35 89 0 c48 0
116 3 150 6 56 6 62 9 59 28 -3 18 -13 22 -78 29 -91 10 -149 40 -220 111 -40
41 -140 183 -140 200 0 2 -26 59 -59 127 -54 114 -136 292 -191 414 -240 527
-225 490 -212 542 19 71 61 151 82 158 11 4 20 10 20 15 0 7 -67 35 -172 71
l-38 13 0 377 c0 207 3 391 6 409 4 17 21 47 39 66 l32 34 246 0 246 0 38 56
c21 30 73 103 116 162 44 59 83 115 88 125 9 16 -7 17 -268 17 -247 0 -285 -2
-340 -20 -128 -40 -202 -96 -248 -186 l-30 -59 -5 -435 c-3 -239 -8 -430 -12
-425 -4 6 -24 51 -46 100 -22 50 -87 197 -146 328 -58 131 -115 259 -127 285
-11 26 -38 85 -59 132 -95 212 -110 248 -110 263 0 33 65 185 101 237 152 218
409 244 1169 116 399 -67 480 -76 585 -64 115 12 232 51 375 124 389 197 690
477 785 727 36 98 46 149 46 251 -1 209 -85 362 -239 434 -82 38 -204 42 -283
9z m-2539 -2222 c37 -94 134 -327 215 -520 153 -365 177 -407 246 -435 l28
-12 -26 -35 c-32 -41 -38 -19 89 -318 49 -115 112 -264 140 -330 63 -150 122
-290 160 -378 16 -38 28 -73 26 -79 -3 -9 -201 387 -395 791 -47 97 -97 195
-111 219 -29 47 -96 93 -161 113 -23 7 -41 14 -41 17 0 2 16 22 35 43 57 63
56 69 -33 267 -44 97 -99 222 -122 277 -22 55 -67 154 -100 220 -48 99 -69
131 -118 178 -33 31 -68 57 -76 57 -9 0 -16 3 -16 8 1 9 172 91 184 88 5 -1
39 -78 76 -171z m-828 -735 c26 -108 26 -134 1 -250 -12 -52 -29 -149 -38
-215 -10 -66 -21 -126 -24 -133 -4 -6 -13 45 -20 115 -15 161 -26 226 -53 335
l-22 87 26 53 c26 54 47 121 70 218 l12 55 13 -90 c8 -49 23 -128 35 -175z
m-1527 -2345 c55 -8 156 -22 225 -31 69 -9 128 -19 133 -23 10 -10 -159 -48
-297 -67 -138 -20 -366 -16 -411 6 -62 31 -70 112 -11 130 38 12 227 4 361
-15z m2680 -158 c-82 -79 -79 -83 76 -91 272 -14 439 -73 529 -188 37 -47 41
-55 38 -102 -3 -50 -4 -51 -53 -76 -45 -22 -61 -24 -160 -23 -194 3 -399 54
-930 233 -165 56 -302 103 -303 105 -6 6 110 62 184 90 173 65 367 100 576
103 l98 2 -55 -53z"/>
<path d="M2134 8683 c-21 -27 -44 -54 -51 -61 -20 -20 -16 -31 14 -43 15 -6
35 -18 43 -27 161 -178 252 -284 247 -288 -3 -3 -29 10 -59 29 -117 75 -165
105 -212 132 -27 16 -64 44 -82 62 l-33 33 -38 -41 c-69 -75 -84 -109 -46
-109 8 0 88 -41 177 -92 88 -50 179 -102 201 -114 89 -49 171 -96 180 -105 20
-20 43 -7 93 53 29 35 52 65 52 68 0 5 -98 127 -210 260 -148 178 -189 229
-204 258 -9 17 -20 32 -25 32 -5 0 -26 -21 -47 -47z"/>
<path d="M4670 7630 c-88 -66 -160 -123 -160 -126 0 -4 37 -50 83 -103 46 -53
100 -117 121 -143 21 -27 41 -48 45 -48 3 0 27 20 53 43 39 35 151 136 222
199 22 20 26 11 -79 158 -26 36 -58 82 -72 103 -14 20 -32 37 -39 37 -7 0 -85
-54 -174 -120z"/>
<path d="M8845 7655 c-22 -13 -98 -47 -170 -76 -156 -63 -205 -91 -205 -120 0
-20 1 -21 23 -5 12 9 46 28 75 42 43 21 61 25 100 19 73 -10 160 -62 201 -119
62 -87 54 -190 -26 -318 l-22 -37 -263 -3 c-244 -3 -267 -5 -323 -26 -109 -41
-180 -102 -223 -192 l-27 -55 -5 -432 -5 -433 -59 133 c-32 72 -114 256 -181
407 -68 151 -155 347 -193 435 -39 88 -74 161 -79 162 -4 2 -116 -84 -248
-190 l-240 -192 60 -6 c74 -7 132 -42 176 -108 50 -75 319 -636 319 -666 0
-11 -126 -119 -250 -215 l-32 -25 81 -1 c73 -1 85 -4 128 -32 26 -18 74 -44
106 -59 l57 -26 0 -372 0 -372 -25 -25 c-14 -14 -39 -28 -56 -32 -18 -3 -136
-6 -263 -6 l-232 0 -27 -28 c-51 -53 -59 -124 -28 -245 32 -122 120 -282 143
-259 5 5 13 50 17 99 13 148 39 168 250 188 160 14 207 31 261 92 58 66 61 94
58 521 -2 228 1 371 6 369 6 -2 32 -52 59 -113 27 -60 66 -147 88 -192 21 -46
39 -86 39 -87 0 -14 246 -507 285 -570 48 -81 102 -161 120 -181 6 -6 23 -27
40 -48 47 -59 129 -116 197 -137 78 -25 321 -43 436 -34 78 6 83 8 80 28 -3
19 -11 23 -68 28 -36 4 -81 14 -100 22 -53 22 -140 90 -137 107 1 8 40 44 87
80 158 121 361 330 463 478 78 111 155 264 197 395 55 166 67 386 30 533 -33
127 -92 238 -169 315 -75 75 -144 112 -251 134 -171 36 -325 6 -445 -86 -48
-36 -101 -96 -93 -104 2 -3 26 2 52 10 27 8 88 20 136 26 254 33 436 -81 494
-307 57 -220 33 -502 -64 -760 -38 -102 -112 -254 -151 -309 -19 -28 -20 -28
-14 -5 4 14 14 41 22 60 7 19 26 79 40 135 22 83 27 122 27 236 1 131 0 137
-29 195 -42 82 -90 107 -195 101 -149 -8 -265 -78 -295 -180 -44 -148 12 -259
127 -249 26 3 34 43 12 59 -15 11 -20 10 -35 -3 -43 -39 -93 24 -92 114 2 63
35 137 76 166 24 18 43 21 120 21 102 0 143 -15 205 -75 56 -53 66 -89 65
-225 -1 -106 -6 -134 -38 -243 -19 -68 -51 -156 -69 -195 -45 -97 -201 -287
-236 -287 -16 0 -71 81 -118 175 -16 33 -112 240 -212 460 -100 220 -197 433
-216 474 -19 40 -34 80 -34 90 0 9 12 48 26 88 25 69 49 105 76 116 20 8 -5
22 -92 53 -41 14 -82 29 -90 33 -13 7 -15 63 -18 392 -2 382 -2 385 20 429 13
25 34 51 48 57 18 9 95 13 265 13 l241 0 19 33 c10 17 39 59 63 92 24 33 50
69 58 80 8 11 46 63 85 115 122 163 172 288 173 431 1 76 -2 92 -29 144 -28
56 -82 106 -109 104 -6 -1 -29 -11 -51 -24z m-1349 -1017 c37 -95 101 -252
142 -348 41 -96 89 -211 107 -255 119 -286 120 -289 162 -320 22 -16 48 -35
59 -41 17 -10 17 -12 -4 -39 -12 -15 -22 -36 -22 -46 0 -10 51 -138 114 -286
341 -803 352 -829 301 -743 -24 40 -355 708 -355 716 0 2 -30 63 -66 136 -86
175 -111 200 -232 238 l-52 16 45 46 c35 35 45 53 45 78 0 19 -31 100 -74 194
-40 88 -97 217 -125 286 -103 251 -185 383 -264 425 -20 11 -37 22 -37 25 0 7
159 86 177 89 6 0 42 -77 79 -171z"/>
<path d="M1655 5113 c-45 -7 -52 -19 -26 -47 15 -15 23 -38 24 -66 l2 -43
-230 -58 c-126 -32 -249 -59 -272 -59 -23 0 -44 -4 -47 -8 -5 -9 29 -150 39
-160 3 -3 18 1 33 10 41 24 513 141 524 130 10 -10 14 -86 7 -112 -3 -12 7
-14 61 -12 36 2 69 7 73 11 4 5 -12 89 -36 187 -25 98 -48 191 -51 207 -7 28
-21 31 -101 20z"/>
<path d="M1840 4458 c-14 -7 -65 -31 -115 -54 -49 -23 -135 -63 -190 -89 -154
-73 -184 -85 -215 -85 -16 0 -31 -4 -34 -9 -8 -12 53 -141 69 -147 7 -3 24 6
38 20 13 13 43 30 66 37 41 12 43 12 67 -16 13 -15 24 -34 24 -40 0 -14 -108
-65 -139 -65 -12 0 -21 -6 -21 -14 0 -19 59 -146 67 -146 4 0 16 9 28 20 12
11 98 55 191 99 363 168 364 169 364 244 0 42 -73 211 -102 234 -22 19 -70 24
-98 11z m55 -175 c9 -20 14 -41 12 -46 -3 -10 -213 -107 -231 -107 -17 0 -56
43 -56 61 0 11 15 24 38 34 20 9 73 34 117 55 44 21 86 39 92 39 7 1 20 -16
28 -36z"/>
<path d="M2113 3920 c-65 -38 -70 -46 -36 -64 28 -14 73 -67 73 -84 0 -5 -42
-39 -92 -76 -51 -36 -145 -103 -208 -149 -63 -46 -127 -87 -142 -91 -16 -3
-28 -10 -28 -14 0 -10 88 -126 99 -130 4 -1 28 17 52 40 44 42 391 298 404
298 16 0 45 -48 51 -82 4 -21 11 -38 15 -38 14 0 119 61 119 69 0 11 -245 351
-253 351 -1 0 -25 -14 -54 -30z"/>
<path d="M8304 3822 c-29 -24 -184 -240 -184 -256 0 -8 11 -16 23 -20 22 -5
71 -38 225 -151 210 -155 263 -188 302 -189 47 -1 63 13 138 114 30 41 68 92
84 113 34 43 32 61 -8 71 -15 4 -69 38 -118 75 -138 103 -275 201 -325 232
-52 33 -105 37 -137 11z m107 -155 c24 -19 105 -78 179 -131 74 -54 137 -102
138 -107 5 -12 -39 -79 -51 -79 -5 0 -88 57 -185 128 -96 70 -180 130 -186
134 -10 6 40 88 54 88 4 0 27 -15 51 -33z"/>
<path d="M7951 3361 c-28 -32 -51 -63 -51 -69 0 -5 11 -13 25 -16 22 -6 131
-96 336 -278 37 -32 79 -68 93 -79 15 -11 33 -34 42 -50 10 -20 19 -27 28 -22
19 12 106 112 106 123 0 5 -10 12 -22 15 -24 8 -74 47 -203 160 -44 38 -109
95 -144 125 -95 82 -116 103 -130 128 -6 12 -16 22 -20 22 -5 0 -32 -26 -60
-59z"/>
<path d="M2548 3387 c-7 -7 -28 -23 -46 -36 -36 -25 -34 -35 11 -55 18 -7 43
-26 57 -40 l25 -27 -180 -175 c-99 -96 -195 -182 -212 -190 -18 -8 -33 -18
-33 -22 0 -15 101 -122 115 -122 8 0 16 9 20 20 6 19 301 316 358 360 l28 22
25 -23 c13 -12 28 -37 32 -53 12 -44 28 -40 105 26 l32 27 -126 128 c-69 70
-134 138 -145 151 -21 25 -46 28 -66 9z"/>
<path d="M7728 3131 c-44 -22 -228 -181 -228 -198 0 -6 13 -16 29 -21 17 -6
81 -70 167 -169 201 -228 224 -257 233 -289 10 -37 30 -37 73 1 18 17 64 57
101 89 38 33 75 72 83 87 17 34 18 92 3 122 -19 34 -306 363 -333 381 -33 21
-83 20 -128 -3z m118 -188 c33 -38 71 -81 85 -98 105 -119 129 -150 129 -163
0 -21 -40 -62 -59 -61 -9 0 -59 50 -111 110 -52 61 -110 127 -128 147 -66 74
-68 78 -35 106 15 14 35 26 44 26 9 0 43 -30 75 -67z"/>
<path d="M3017 2942 c-3 -15 -39 -75 -79 -132 -41 -58 -111 -158 -157 -223
-114 -164 -119 -208 -28 -275 140 -103 199 -142 211 -142 8 0 19 15 25 33 6
17 40 73 75 122 36 50 79 110 96 135 17 25 58 82 90 128 91 127 90 171 -2 241
-94 72 -197 141 -211 141 -8 0 -17 -12 -20 -28z m136 -190 c9 -8 17 -20 17
-26 0 -6 -38 -65 -84 -131 -97 -137 -142 -202 -160 -229 -12 -17 -15 -17 -42
-3 -62 32 -62 40 -3 125 29 42 57 82 62 87 7 9 20 27 113 162 39 56 48 57 97
15z"/>
<path d="M7320 2819 c-72 -47 -76 -53 -47 -75 21 -17 115 -154 265 -384 l42
-65 -30 -27 c-17 -16 -36 -28 -44 -28 -7 0 -35 35 -62 78 -27 42 -88 137 -137
210 -48 74 -90 147 -94 163 -3 16 -9 32 -14 34 -4 3 -40 -15 -80 -41 l-72 -46
34 -32 c19 -18 65 -82 103 -142 253 -397 259 -402 382 -328 135 81 165 122
141 192 -8 22 -77 136 -154 253 -77 118 -143 226 -147 242 -8 35 -28 34 -86
-4z"/>
<path d="M3537 2622 c-3 -4 -8 -22 -12 -41 -4 -19 -52 -133 -107 -254 -116
-257 -127 -292 -109 -335 7 -17 23 -37 35 -45 48 -31 275 -129 285 -122 6 3
11 19 11 35 0 15 18 68 41 117 23 48 72 159 110 246 102 234 98 254 -73 330
-156 70 -177 77 -181 69z m153 -187 c17 -9 30 -19 30 -24 0 -13 -172 -395
-184 -408 -8 -9 -21 -8 -54 7 l-43 19 14 33 c8 18 49 113 93 211 84 190 86
192 144 162z"/>
<path d="M6885 2561 c-22 -11 -103 -47 -180 -81 -77 -34 -144 -65 -149 -70
-10 -10 20 -116 36 -126 6 -4 18 2 27 13 17 23 72 53 94 53 7 0 29 -35 47 -77
19 -43 48 -109 65 -148 92 -202 105 -235 105 -264 0 -39 16 -40 90 -5 82 38
85 42 56 73 -13 14 -50 85 -81 156 -32 72 -76 173 -100 225 l-43 95 22 17 c12
10 38 18 63 18 23 0 44 3 46 8 7 13 -34 132 -46 132 -7 -1 -30 -9 -52 -19z"/>
<path d="M6275 2333 c-40 -9 -121 -35 -156 -50 -67 -28 -74 -81 -32 -230 42
-149 82 -176 207 -138 27 8 55 15 62 15 13 0 54 -118 54 -154 0 -17 -27 -31
-70 -38 -20 -2 -25 2 -30 26 -3 16 -10 31 -16 33 -12 4 -134 -73 -134 -84 0
-5 20 -30 43 -56 39 -42 48 -47 87 -47 61 0 207 46 236 75 38 38 39 68 9 179
-37 132 -51 161 -91 182 -30 16 -39 17 -91 5 -119 -27 -107 -31 -131 43 -29
88 -28 93 15 105 45 13 53 8 53 -30 0 -17 5 -29 13 -29 17 0 137 77 137 89 0
5 -19 29 -42 54 -43 45 -80 60 -123 50z"/>
</g>
</svg>
